<svg width="17" height="17" viewBox="0 0 17 17" fill="none" xmlns="http://www.w3.org/2000/svg">
<path d="M15.5833 11.985V14.11C15.5841 14.3073 15.5437 14.5026 15.4647 14.6833C15.3857 14.8641 15.2697 15.0263 15.1244 15.1597C14.979 15.293 14.8074 15.3946 14.6205 15.4578C14.4336 15.521 14.2356 15.5444 14.0392 15.5267C11.8595 15.2899 9.76578 14.545 7.92624 13.3521C6.21479 12.2646 4.76377 10.8136 3.67624 9.10211C2.47914 7.25421 1.73417 5.15032 1.50166 2.96086C1.48396 2.76498 1.50724 2.56757 1.57001 2.38118C1.63279 2.19479 1.73369 2.02352 1.86629 1.87826C1.99888 1.733 2.16027 1.61695 2.34018 1.53748C2.52009 1.45801 2.71457 1.41688 2.91124 1.41669H5.03624C5.38 1.41331 5.71326 1.53504 5.97391 1.7592C6.23455 1.98335 6.4048 2.29464 6.45291 2.63503C6.5426 3.31507 6.70894 3.98279 6.94874 4.62544C7.04404 4.87897 7.06467 5.15451 7.00818 5.4194C6.95168 5.68429 6.82044 5.92744 6.62999 6.12003L5.73041 7.01961C6.73876 8.79296 8.20707 10.2613 9.98041 11.2696L10.88 10.37C11.0726 10.1796 11.3157 10.0483 11.5806 9.99184C11.8455 9.93535 12.121 9.95598 12.3746 10.0513C13.0172 10.2911 13.6849 10.4574 14.365 10.5471C14.7091 10.5957 15.0233 10.769 15.248 11.0341C15.4726 11.2992 15.5919 11.6376 15.5833 11.985Z" stroke="black" stroke-width="2" stroke-linecap="round" stroke-linejoin="round"/>
</svg>
