<svg width="18" height="18" viewBox="0 0 18 18" fill="none" xmlns="http://www.w3.org/2000/svg">
<path d="M4.92309 12.7487C4.54969 12.4432 4.74434 12.5293 3.84371 12.3321C3.43508 12.2424 3.07586 12.0702 2.75102 11.8638L0.801525 15.7746C0.612893 16.1532 0.965236 16.5645 1.46453 16.5491L3.72856 16.4784L5.28574 17.8242C5.62949 18.1209 6.23277 18.0285 6.42141 17.6498L8.65793 13.1632C8.19215 13.3755 7.67524 13.5 7.1407 13.5C6.30281 13.5 5.51563 13.2331 4.92309 12.7487ZM17.1984 15.7746L15.2489 11.8638C14.9241 12.0705 14.5648 12.2424 14.1562 12.3321C13.2509 12.5304 13.4494 12.4439 13.0768 12.7487C12.4843 13.2331 11.6967 13.5 10.8588 13.5C10.3243 13.5 9.80734 13.3752 9.34156 13.1632L11.5781 17.6498C11.7667 18.0285 12.3704 18.1209 12.7138 17.8242L14.2714 16.4784L16.5354 16.5491C17.0347 16.5645 17.387 16.1529 17.1984 15.7746ZM12.0507 11.9531C12.7073 11.4064 12.7825 11.4535 13.7175 11.2451C14.3143 11.1118 14.781 10.7233 14.9408 10.2262C15.2622 9.22779 15.1789 9.34838 16.0559 8.61783C16.4929 8.25396 16.6634 7.72345 16.5036 7.22635C16.1826 6.22861 16.1822 6.36783 16.5036 5.36904C16.6634 4.87193 16.4929 4.34142 16.0559 3.97756C15.1789 3.24701 15.2622 3.36724 14.9408 2.36916C14.781 1.87205 14.3143 1.48357 13.7175 1.35033C12.5195 1.08279 12.6639 1.15275 11.7861 0.421853C11.3491 0.0579861 10.7118 -0.0843967 10.115 0.0488455C8.91746 0.316033 9.08461 0.316385 7.88492 0.0488455C7.28809 -0.0843967 6.65086 0.0576346 6.21387 0.421853C5.33688 1.1524 5.48125 1.08279 4.28285 1.35033C3.68602 1.48357 3.21938 1.87205 3.05953 2.36916C2.73856 3.36724 2.82149 3.24701 1.94449 3.97756C1.5075 4.34142 1.33649 4.87193 1.49676 5.36904C1.81774 6.36607 1.81817 6.22685 1.49676 7.22599C1.33692 7.7231 1.5075 8.25361 1.94449 8.61783C2.82149 9.34838 2.73813 9.22779 3.05953 10.2262C3.21938 10.7233 3.68602 11.1118 4.28285 11.2451C5.24449 11.4595 5.31625 11.4258 5.94918 11.9531C6.51766 12.4267 7.40324 12.5114 8.08645 12.1577C8.35965 12.0158 8.67657 11.9404 9.00018 11.9404C9.32378 11.9404 9.64071 12.0158 9.91391 12.1577C10.5967 12.5114 11.4823 12.4267 12.0507 11.9531ZM4.94629 6.18607C4.94629 4.32174 6.76129 2.81037 8.99996 2.81037C11.2386 2.81037 13.0536 4.32174 13.0536 6.18607C13.0536 8.05041 11.2386 9.56178 8.99996 9.56178C6.76129 9.56178 4.94629 8.05041 4.94629 6.18607Z" fill="black"/>
</svg>
