<svg width="22" height="19" viewBox="0 0 22 19" fill="none" xmlns="http://www.w3.org/2000/svg">
<path d="M19.1034 3.03376C18.6352 2.58664 18.0793 2.23195 17.4674 1.98996C16.8556 1.74797 16.1998 1.62341 15.5375 1.62341C14.8753 1.62341 14.2195 1.74797 13.6076 1.98996C12.9958 2.23195 12.4399 2.58664 11.9717 3.03376L11 3.96126L10.0284 3.03376C9.08265 2.13103 7.79998 1.62388 6.46253 1.62388C5.12508 1.62388 3.84241 2.13103 2.8967 3.03376C1.95098 3.93649 1.41968 5.16086 1.41968 6.43751C1.41968 7.71416 1.95098 8.93853 2.8967 9.84126L3.86836 10.7688L11 17.5763L18.1317 10.7688L19.1034 9.84126C19.5718 9.39435 19.9434 8.86372 20.1969 8.2797C20.4504 7.69567 20.5809 7.06969 20.5809 6.43751C20.5809 5.80533 20.4504 5.17935 20.1969 4.59532C19.9434 4.0113 19.5718 3.48067 19.1034 3.03376V3.03376Z" stroke="black" stroke-width="2" stroke-linecap="round" stroke-linejoin="round"/>
</svg>
